<svg t="1722154948748" class="icon" viewBox="0 0 1024 1024" version="1.1" xmlns="http://www.w3.org/2000/svg" p-id="8367" width="20" height="20"><path d="M253.2 268h516.6c-8.7 0-15.9-7.6-15.3-16.4L715.4 878c0.5-7.4 6.3-12.8 13.8-12.8H293.8c7.4 0 13.3 5.5 13.8 12.8l-39.1-626.4c0.5 8.7-6.6 16.4-15.3 16.4z m-2 613.6c1.4 22.4 20.2 40.1 42.6 40.1h435.3c22.4 0 41.2-17.8 42.6-40.1l39.1-626.4c1.5-23.9-17.2-43.7-41.1-43.7H253.2c-23.9 0-42.5 19.8-41.1 43.7l39.1 626.4zM878.7 268c15.6 0 28.3-12.6 28.3-28.2s-12.6-28.3-28.3-28.3H144.3c-15.6 0-28.3 12.6-28.3 28.3 0 15.6 12.6 28.2 28.3 28.2h734.4zM389 268h245c23.1 0 41.7-18.9 41.7-41.8v-81.8c0-23.1-18.8-41.8-41.7-41.8H389c-23.1 0-41.7 18.9-41.7 41.8v81.8c-0.1 23 18.7 41.8 41.7 41.8z m14.7-123.7c0 8.1-6.5 14.7-14.8 14.7h245c-8.2 0-14.8-6.5-14.8-14.7v81.8c0-8.1 6.5-14.7 14.8-14.7H389c8.2 0 14.8 6.5 14.8 14.7v-81.8z m174.7 626.6c0 15.6 12.6 28.2 28.3 28.2 15.6 0 28.2-12.6 28.2-28.2V362.3c0-15.6-12.6-28.2-28.2-28.2s-28.3 12.6-28.3 28.2v408.6zM444.5 362.3c0-15.6-12.6-28.2-28.2-28.2s-28.2 12.6-28.2 28.2v408.6c0 15.6 12.6 28.2 28.2 28.2s28.2-12.6 28.2-28.2V362.3z m0 0" fill="#EB5D51" p-id="8368"></path></svg>