<svg t="1722155146763" class="icon" viewBox="0 0 1024 1024" version="1.1" xmlns="http://www.w3.org/2000/svg" p-id="10654" width="20" height="20"><path d="M318.097009 695.063868c0.030707 0.035825 0.040943 0.061415 0.066532 0.071651 21.019117 20.983292 55.063229 20.947467 76.031167-0.071651L982.811872 106.559298c21.039589-21.049824 21.039589-55.18094 0-76.230764-0.061415-0.07165-0.133065-0.133065-0.179125-0.179126-21.049824-20.952585-55.093936-20.870699-76.031167 0.179126l-588.504571 588.50457c-21.029353 21.049824-21.029353 55.18094 0 76.230764z" fill="#F7E38B" p-id="10655"></path><path d="M970.134893 431.078702h-0.230304c-29.632503 0-53.655813 24.02331-53.655813 53.655813v431.436954H107.813716V107.552166l431.401129 0.199597h0.040943c29.693917-0.076768 53.691638-24.228025 53.61487-53.916824v-0.230305c0-29.632503-24.018192-53.650695-53.655813-53.650695H53.543758a53.696756 53.696756 0 0 0-38.020701 15.798884 53.328269 53.328269 0 0 0-15.522518 37.80575v916.841911A54.280194 54.280194 0 0 0 15.789187 1008.410949a53.338505 53.338505 0 0 0 37.821104 15.517401h916.8675a54.280194 54.280194 0 0 0 38.010466-15.788648 53.415273 53.415273 0 0 0 15.5174-37.856929V484.729397c-0.061415-29.688799-24.181964-53.712109-53.870764-53.650695z" fill="#6CC0F1" p-id="10656"></path></svg>